<?xml version="1.0" standalone="no"?>
<!DOCTYPE svg PUBLIC "-//W3C//DTD SVG 20010904//EN"
 "http://www.w3.org/TR/2001/REC-SVG-20010904/DTD/svg10.dtd">
<svg version="1.0" xmlns="http://www.w3.org/2000/svg"
 width="128.000000pt" height="128.000000pt" viewBox="0 0 128.000000 128.000000"
 preserveAspectRatio="xMidYMid meet">

<g transform="translate(0.000000,128.000000) scale(0.100000,-0.100000)"
fill="#000000" stroke="none">
<path d="M480 1245 c-217 -60 -388 -233 -445 -450 -19 -76 -19 -233 0 -310 49
-191 191 -351 380 -427 77 -32 85 -33 225 -33 140 0 148 1 225 32 161 65 293
197 357 358 31 77 33 86 33 220 0 121 -3 149 -23 207 -26 73 -80 164 -137 227
-51 56 -170 134 -246 161 -84 30 -285 38 -369 15z m254 -289 c67 -20 110 -57
142 -121 23 -49 26 -64 21 -121 -10 -136 -97 -212 -252 -222 l-85 -5 0 -88 0
-89 -90 0 -90 0 0 330 0 330 153 0 c104 0 169 -5 201 -14z"/>
<path d="M560 730 l0 -80 49 0 c55 0 98 28 102 65 5 69 -20 95 -96 95 l-55 0
0 -80z"/>
</g>
</svg>
